<svg width="700" height="700" viewBox="0 0 700 700" fill="none" xmlns="http://www.w3.org/2000/svg">
<rect width="700" height="700" rx="140" fill="url(#paint0_linear_7_21)"/>
<g filter="url(#filter0_d_7_21)">
<path d="M180.742 182C180.742 173 185.742 158 185.742 158C185.742 158 191.351 159.745 197.742 163C205.171 166.783 213.748 172.431 217.242 177C220.1 180.738 225.136 185.602 228.742 191C233.336 197.878 236.242 205 236.242 205C272.908 196 370.642 182.9 462.242 204.5C468.408 194.333 487.342 170.8 513.742 158C516.908 162.167 522.742 178.1 520.742 208.5C530.408 223 552.742 260 564.742 292C572.242 309.333 588.142 356.7 591.742 407.5C592.908 420.667 594.542 453.8 591.742 481C577.575 494.833 533.142 526.6 468.742 543C465.242 540.167 455.042 528 442.242 502C450.908 498.833 470.942 490.2 481.742 481L475.242 475C466.575 480.833 443.942 493.7 422.742 498.5C409.908 500.833 380.842 504.8 367.242 502C364.242 501.333 357.642 496.7 355.242 483.5C355.242 483.5 354.742 478.5 354.742 467.5C354.742 456.5 357.242 452 357.242 452V451.5C355.242 453 353.742 453.75 353.742 453.75L350.242 456L346.992 454.25L343.742 452.5V453C343.742 453 345.242 458.5 345.242 467C345.242 475.5 343.742 485 343.742 485C343.242 486.5 343.742 490 338.742 496.5C336.742 501.5 325.742 501.5 325.742 501.5C323.242 501.5 319.372 501.92 312.742 501.5C307.78 501.186 303.742 501.5 295.242 500C286.742 498.5 280.242 497 275.242 495.5C270.242 494 256.242 489.5 251.242 487.5C246.242 485.5 227.242 475 227.242 475L219.742 481C219.742 481 230.242 488.5 240.242 493C250.242 497.5 259.742 501.5 259.742 501.5C259.742 501.5 251.242 518 248.242 523C246.652 525.65 242.393 531.822 238.742 536.5C235.503 540.649 232.742 543.5 232.742 543.5C232.742 543.5 218.374 539.555 203.742 534C188.818 528.335 173.558 521.03 166.742 518C153.242 512 109.242 480 109.242 480C109.242 480 106.448 442.404 109.242 401.5C110.924 376.871 115.792 351.043 121.242 331.5C127.106 310.469 137.602 284.085 148.742 262.5C165.146 230.715 182.242 207 182.242 207C182.242 207 181.176 201.129 180.742 194.5C180.459 190.185 180.742 185.548 180.742 182Z" fill="white"/>
</g>
<g filter="url(#filter1_i_7_21)">
<path d="M281.5 365.5C279.5 367.5 274 371 270 371C266 371 264.5 370 262.5 368.5C260.5 367 258.75 365.154 257 362.5C255.123 359.653 254 358 253.5 354.5C253 351 253 349 253.5 345.5C254 342 255.5 337.5 257 334.5C258.5 331.5 261 329.5 263.5 327.5C266 325.5 272 324.5 275 325C278 325.5 282.5 329.5 283.5 331C284.5 332.5 286 334.5 287 336C288 337.5 289 343.5 289 346.5C289 349.5 288 354 287 356.5C286 359 283.5 363.5 281.5 365.5Z" fill="#3E97D8"/>
<path d="M290 419.834C257 406 237.5 419 227.5 424C227.5 424 237.5 418.704 259 417.5C280.5 416.296 290 419.834 290 419.834Z" fill="#3E97D8"/>
<path d="M476 421.5C447 405 424 415.166 414 420.166C414 420.166 424 416 445 416C466 416 476 421.5 476 421.5Z" fill="#3E97D8"/>
<path d="M473 398C437.5 387.5 424 402.5 414 407.5C414 407.5 429.5 400.068 442.5 398C455.5 395.932 473 398 473 398Z" fill="#3E97D8"/>
<path d="M292 403.5C267.5 386 241 392 231 397C231 397 243.5 394.175 260 395C276.5 395.825 292 403.5 292 403.5Z" fill="#3E97D8"/>
<path d="M427.5 372C431.5 372 437 368.5 439 366.5C441 364.5 443.5 360 444.5 357.5C445.5 355 446.5 350.5 446.5 347.5C446.5 344.5 445.5 338.5 444.5 337C443.5 335.5 442 333.5 441 332C440 330.5 435.5 326.5 432.5 326C429.5 325.5 423.5 326.5 421 328.5C418.5 330.5 416 332.5 414.5 335.5C413 338.5 411.5 343 411 346.5C410.5 350 410.5 352 411 355.5C411.491 358.939 412.584 360.595 414.403 363.353L414.5 363.5C416.25 366.154 418 368 420 369.5C422 371 423.5 372 427.5 372Z" fill="#3E97D8"/>
<path d="M343 452.5C335.667 447 320.7 430.7 319.5 409.5C319.5 409.5 330.5 404 348.5 403.5C366.5 403 377 409.5 377 409.5C377 409.5 377.5 420.5 371.5 432.5C365.5 444.5 358.5 450 356.5 451.5C354.5 453 353 453.75 353 453.75L349.5 456L346.25 454.25L343 452.5Z" fill="#3E97D8"/>
</g>
<path d="M414.5 363.5C416.25 366.154 418 368 420 369.5C422 371 423.5 372 427.5 372C431.5 372 437 368.5 439 366.5C441 364.5 443.5 360 444.5 357.5C445.5 355 446.5 350.5 446.5 347.5C446.5 344.5 445.5 338.5 444.5 337C443.5 335.5 442 333.5 441 332C440 330.5 435.5 326.5 432.5 326C429.5 325.5 423.5 326.5 421 328.5C418.5 330.5 416 332.5 414.5 335.5C413 338.5 411.5 343 411 346.5C410.5 350 410.5 352 411 355.5C411.491 358.939 412.584 360.595 414.403 363.353M414.5 363.5L414.403 363.353M414.5 363.5C414.467 363.451 414.435 363.402 414.403 363.353M343 453L344.5 467C344.5 475.5 343 485 343 485C342.5 486.5 343 490 338 496.5C336 501.5 325 501.5 325 501.5C322.5 501.5 318.63 501.92 312 501.5C307.039 501.186 303 501.5 294.5 500C286 498.5 279.5 497 274.5 495.5C269.5 494 255.5 489.5 250.5 487.5C245.5 485.5 226.5 475 226.5 475L219 481C219 481 229.5 488.5 239.5 493C249.5 497.5 259 501.5 259 501.5C259 501.5 250.5 518 247.5 523C245.91 525.65 241.652 531.822 238 536.5C234.761 540.649 232 543.5 232 543.5C232 543.5 217.632 539.555 203 534C188.076 528.335 172.817 521.03 166 518C152.5 512 108.5 480 108.5 480C108.5 480 105.706 442.404 108.5 401.5C110.182 376.871 115.051 351.043 120.5 331.5C126.364 310.469 136.86 284.085 148 262.5C164.404 230.715 181.5 207 181.5 207C181.5 207 180.434 201.129 180 194.5C179.718 190.185 180 185.548 180 182C180 173 185 158 185 158C185 158 190.609 159.745 197 163C204.429 166.783 213.006 172.431 216.5 177C219.358 180.738 224.395 185.602 228 191C232.594 197.878 235.5 205 235.5 205C272.167 196 369.9 182.9 461.5 204.5C467.667 194.333 486.6 170.8 513 158C516.167 162.167 522 178.1 520 208.5C529.667 223 552 260 564 292C571.5 309.333 587.4 356.7 591 407.5C592.167 420.667 593.8 453.8 591 481C576.833 494.833 532.4 526.6 468 543C464.5 540.167 454.3 528 441.5 502C450.167 498.833 470.2 490.2 481 481L474.5 475C465.833 480.833 443.2 493.7 422 498.5C409.167 500.833 380.1 504.8 366.5 502C363.5 501.333 356.9 496.7 354.5 483.5C354.5 483.5 354 478.5 354 467.5L356.5 452M270 371C274 371 279.5 367.5 281.5 365.5C283.5 363.5 286 359 287 356.5C288 354 289 349.5 289 346.5C289 343.5 288 337.5 287 336C286 334.5 284.5 332.5 283.5 331C282.5 329.5 278 325.5 275 325C272 324.5 266 325.5 263.5 327.5C261 329.5 258.5 331.5 257 334.5C255.5 337.5 254 342 253.5 345.5C253 349 253 351 253.5 354.5C254 358 255.123 359.653 257 362.5C258.75 365.154 260.5 367 262.5 368.5C264.5 370 266 371 270 371ZM227.5 424C237.5 419 257 406 290 419.834C290 419.834 280.5 416.296 259 417.5C237.5 418.704 227.5 424 227.5 424ZM414 420.166C424 415.166 447 405 476 421.5C476 421.5 466 416 445 416C424 416 414 420.166 414 420.166ZM414 407.5C424 402.5 437.5 387.5 473 398C473 398 455.5 395.932 442.5 398C429.5 400.068 414 407.5 414 407.5ZM231 397C241 392 267.5 386 292 403.5C292 403.5 276.5 395.825 260 395C243.5 394.175 231 397 231 397ZM349.5 456L353 453.75C353 453.75 354.5 453 356.5 451.5C358.5 450 365.5 444.5 371.5 432.5C377.5 420.5 377 409.5 377 409.5C377 409.5 366.5 403 348.5 403.5C330.5 404 319.5 409.5 319.5 409.5C320.7 430.7 335.667 447 343 452.5L346.25 454.25L349.5 456Z" stroke="black" stroke-opacity="0.06"/>
<path d="M343.5 452.027C336.167 446.527 321.2 430.227 320 409.027C320 409.027 331 403.527 349 403.027C367 402.527 377.5 409.027 377.5 409.027C377.5 409.027 378 420.027 372 432.027C366 444.027 359 449.527 357 451.027C355 452.527 353.5 453.277 353.5 453.277L350 455.527L346.75 453.777L343.5 452.027Z" fill="black" stroke="black"/>
<defs>
<filter id="filter0_d_7_21" x="104" y="158" width="493.288" height="393.5" filterUnits="userSpaceOnUse" color-interpolation-filters="sRGB">
<feFlood flood-opacity="0" result="BackgroundImageFix"/>
<feColorMatrix in="SourceAlpha" type="matrix" values="0 0 0 0 0 0 0 0 0 0 0 0 0 0 0 0 0 0 127 0" result="hardAlpha"/>
<feOffset dy="4"/>
<feGaussianBlur stdDeviation="2"/>
<feComposite in2="hardAlpha" operator="out"/>
<feColorMatrix type="matrix" values="0 0 0 0 0 0 0 0 0 0 0 0 0 0 0 0 0 0 0.25 0"/>
<feBlend mode="normal" in2="BackgroundImageFix" result="effect1_dropShadow_7_21"/>
<feBlend mode="normal" in="SourceGraphic" in2="effect1_dropShadow_7_21" result="shape"/>
</filter>
<filter id="filter1_i_7_21" x="106.758" y="157.371" width="486.288" height="390.689" filterUnits="userSpaceOnUse" color-interpolation-filters="sRGB">
<feFlood flood-opacity="0" result="BackgroundImageFix"/>
<feBlend mode="normal" in="SourceGraphic" in2="BackgroundImageFix" result="shape"/>
<feColorMatrix in="SourceAlpha" type="matrix" values="0 0 0 0 0 0 0 0 0 0 0 0 0 0 0 0 0 0 127 0" result="hardAlpha"/>
<feOffset dy="4"/>
<feGaussianBlur stdDeviation="2"/>
<feComposite in2="hardAlpha" operator="arithmetic" k2="-1" k3="1"/>
<feColorMatrix type="matrix" values="0 0 0 0 0 0 0 0 0 0 0 0 0 0 0 0 0 0 0.25 0"/>
<feBlend mode="normal" in2="shape" result="effect1_innerShadow_7_21"/>
</filter>
<linearGradient id="paint0_linear_7_21" x1="637.5" y1="74" x2="54.5" y2="659" gradientUnits="userSpaceOnUse">
<stop stop-color="#97CFF8"/>
<stop offset="1" stop-color="#3E97D8"/>
</linearGradient>
</defs>
</svg>
